# xmcd CD database file
#
# Track frame offsets:
#	150
#	18665
#	43385
#	69782
#	89650
#	105790
#	124832
#	140342
#	149070
#
# Disc length: 2250 seconds
#
# Revision: 0
# Processed by: cddbd v1.5PL3 Copyright (c) Steve Scherf et al.
# Submitted via: CDex 1.50beta8
#
DISCID=8108c809
DTITLE=ピンクリボン軍 - 東男
DYEAR=2003
DGENRE=Punk Rock
TTITLE0=中退
TTITLE1=下駄問答
TTITLE2=ふられ泪
TTITLE3=春の或る日
TTITLE4=捻くれ屋
TTITLE5=阿呆賛歌駄目人間合唱曲
TTITLE6=かくれ夢ぼ
TTITLE7=凹
TTITLE8=酒
EXTD=YEAR: 2003
EXTT0=
EXTT1=
EXTT2=
EXTT3=
EXTT4=
EXTT5=
EXTT6=
EXTT7=
EXTT8=
PLAYORDER=
